<svg xmlns="http://www.w3.org/2000/svg" viewBox="0 0 512 512" role="img" aria-labelledby="title desc">
  <title id="title">PadelPaglu app icon</title>
  <desc id="desc">Dark rounded square icon with bright padel ball and PadelPaglu initials.</desc>
  <defs>
    <linearGradient id="bg" x1="0" y1="0" x2="1" y2="1">
      <stop offset="0" stop-color="#09090b"/>
      <stop offset="1" stop-color="#15151c"/>
    </linearGradient>
    <radialGradient id="glow" cx="70%" cy="25%" r="70%">
      <stop offset="0" stop-color="#d9ff3f" stop-opacity="0.55"/>
      <stop offset="1" stop-color="#d9ff3f" stop-opacity="0"/>
    </radialGradient>
    <filter id="shadow" x="-20%" y="-20%" width="140%" height="140%">
      <feDropShadow dx="0" dy="18" stdDeviation="20" flood-color="#000" flood-opacity="0.45"/>
    </filter>
  </defs>

  <rect width="512" height="512" rx="112" fill="url(#bg)"/>
  <rect width="512" height="512" rx="112" fill="url(#glow)"/>

  <circle cx="362" cy="146" r="62" fill="#d9ff3f" filter="url(#shadow)"/>
  <path d="M322 104c28 18 47 49 50 86" fill="none" stroke="#09090b" stroke-width="15" stroke-linecap="round" opacity="0.85"/>
  <path d="M351 87c23 30 35 61 37 101" fill="none" stroke="#09090b" stroke-width="12" stroke-linecap="round" opacity="0.5"/>

  <g filter="url(#shadow)">
    <path d="M127 355V145h94c50 0 82 30 82 75 0 48-34 78-86 78h-31v57h-59zm59-106h25c21 0 34-11 34-29 0-17-13-28-34-28h-25v57z" fill="#ffffff"/>
    <path d="M288 355V145h65c31 0 56 8 75 25 19 17 29 41 29 71 0 35-12 63-36 84-24 20-56 30-97 30h-36zm58-51h11c27 0 42-22 42-61 0-31-15-47-43-47h-10v108z" fill="#d9ff3f"/>
  </g>

  <path d="M128 393h256" stroke="#d9ff3f" stroke-width="18" stroke-linecap="round" opacity="0.75"/>
</svg>
